<?xml version="1.0" encoding="UTF-8"?>
<svg id="Layer_1" data-name="Layer 1" xmlns="http://www.w3.org/2000/svg" viewBox="0 0 728.26 614.5">
  <defs>
    <style>
      .cls-1 {
        fill: #3f301f;
      }
    </style>
  </defs>
  <path class="cls-1" d="M668.64,451.88c-14.99,14.91-31.47,26.46-54.7,23.89-14.28-1.58-20.11-9.74-25.98-20.62-.35-.65-.19-2.04-1.8-1.27-.77.37-9.37,10.05-11.69,12.02-16.29,13.8-41.83,26.71-60.15,8.45l-6.93-10.47c-20.52,22.55-59.62,42.48-76.66,5.01-13.42,13.11-29.39,27.24-50.04,27.41-14.47.12-27.19-5.82-32.23-19.15-3.59-9.5-1.53-16.74.26-26.32,3.38-18.14,17.97-62.1,15.41-77.4-1.03-6.18-9.3-10.61-.96-17.03,10.07-7.74,41.41-13.41,43.64,3.94,2.38,18.54-12.09,59.66-15.68,80.32-.86,4.94-3.47,19.25,1.47,22.28,7.93,4.86,20.08-1,26.4-6.1,15.53-12.54,18.66-32.95,22.61-50.76,6.51-29.38,17.46-72.85,19.45-101.72.72-10.41-2.73-11.24-6.2-19.76,7.56-13.71,38.67-27.93,48.61-10.04,1.35,2.43,2.41,5.01,2.41,7.81.01,8.36-4,22.84-5.72,31.71-8,41.24-18.37,82.13-26.17,123.42-3.13,28.59,20.86,19.5,30.93,2.06,5.88-10.18,7.75-22.2,10.14-33.48,7.98-37.67,13.07-75.98,20.57-113.75,1.3-9.25-11.42-13.36-2.71-20.47,13.32-10.87,46.97-18.59,47.42,6.57-5.79,50.72-24.4,102.97-30.75,153.08-3.57,28.12,19.33,17.76,30.1,2.28,4.39-6.31,6.84-13.48,8.81-20.73,2.59-9.54,12.94-55.5,11.6-62.22-.75-3.76-4.96-7.22-3.65-11.26,1.64-5.09,24.59-11.71,30.18-11.69,15.49.04,19.11,12.28,17.29,24.24-3.31,21.71-13.79,46.48-14.67,68.21-1.32,32.74,23.93,22.54,36.42,3.21,8.93-13.81,19.83-64.96,18.97-81.16-.42-7.93-5.29-9.99,6.17-14.23s39.45-9.73,37.38,9.07c-21.27,127.37-39.54,273.71-213.29,271.61-136.53-1.65-300.15-87.51-427.8-6.77-9.34,5.91-20.84,20.08-31.45,7.17-9.72-11.83.86-30.78,9.95-40.37,60.48-63.8,222.75-40.44,303.24-28.83,73.95,10.67,163.89,36.2,233.49.01,35.3-18.35,59.1-50.98,66.34-88.17Z"/>
  <path class="cls-1" d="M107.3,432.18c-5.1,27.81-12.48,55.46-13.64,83.86-.91,2.01-9.39,6.82-11.82,8.18-11.3,6.35-34.59,18.82-30.39-5.4l39.52-206.48c1.88-12.08,30.49-14.68,37.17-8.76,2.81,2.49,2.13,7.39,1.91,10.85l-17.88,90.13c-.2,1.8-.03,1.49,1.52,1.53,17.23.38,39.37-12.95,49.9-26.12,20.76-25.96,26.13-78.62-9.74-94.09-32.03-13.82-84.4-1.19-102.48,29.88-5.93,10.18-11.79,29.42.29,37.31,5.67,3.7,11.4.28,10.5,10.4-.78,8.65-13,14.63-20.59,15.48-28.21,3.18-36.06-25.48-32.14-48.14,17.81-102.86,248.8-113.25,215.67,16.67-13.43,52.66-66.02,82.39-117.8,84.7Z"/>
  <path class="cls-1" d="M474.45,212.73c9.4-9.24-19.82-19.54-25.38-21.41-39.65-13.34-106.83-14.7-144.07,6.35-6.41,3.62-12.93,7.49-7.1,15.5,9.44,6,37.42-13.76,49.9-10.8,1.64,1.64-5.12,41.04-7.02,45.79-2.96,7.39-24.07.95-30.42-.99-75.76-23.1-49.04-100.05,1.99-134.38,55.98-37.67,140.39-23.39,178.23,33.03,30.67,45.74,20.6,87.96-34.8,102.38-3.94,1.03-21,5.22-23.13,2.32-1.7-2.31-6.52-27.03-7.14-31.62-2.29-17.05-3.96-19.02,14.54-14.54,7.51,1.82,29.07,13.62,34.4,8.37Z"/>
  <path class="cls-1" d="M268.63,391.83c16.52,17.62,53.43,22.54,56.51,54.98,6.23,65.49-129.75,65.88-125.91,7.84,1.01-15.3,17.38-27.27,31.94-20.85,16.96,7.47-1.71,24.74,14.17,35.83,17.79,12.43,50.62.07,39.5-21.5-9.03-17.52-44.94-22.05-55.42-47.58-20.64-50.31,59.13-70.76,91.32-42.32,20.26,17.9,5.42,46.03-18.51,37.51-12.46-4.44-1.44-24.32-16.12-28.88-17.74-5.51-30.42,11.18-17.48,24.98Z"/>
  <path class="cls-1" d="M382.31,197.47c6.33-.35,14.77-.22,20.95.9,2.12.38,2.84,1.07,3.71,2.98,2.9,32.3,12.1,63.08,20.92,94.05-5.98,53.74-94.1,47.19-82.13-10.2,3.24-15.52,10.22-31.78,13.45-48.02,2.31-11.61,3.61-23.46,4.86-35.24,1.38-4.08,13.98-4.22,18.24-4.46Z"/>
  <path class="cls-1" d="M366.46,67.25c-4.45,1.3-12.66,3.15-16.91,1.06s-9.98-19.69-15.86-20.99c-2.28-.5-5.1.03-7.48-.27l1.26,23.05-16.92,1.33-5.8-66.92c1.26-1.91,27.39-4.17,31.43-4.2,7.58-.06,13.34.08,19.41,5.15,11.82,9.89,10.35,28.1-2.04,36.96,2.39,3.87,15.5,21.35,12.91,24.83ZM343.49,29.32c1.5-1.7,1.89-5.94,1.54-8.14-1.14-7.24-16.61-5.76-21.72-4.09l1.49,15.78c2.1,1.4,16.76-1.35,18.69-3.54Z"/>
  <path class="cls-1" d="M247.96,14.77c50.2-5.26,55.49,67.33,9.34,71.99-46.36,4.68-54.75-67.24-9.34-71.99ZM249.43,30.81c-20.37,2.76-15.43,36.33.48,38.82s24.23-9.67,20.05-24.61c-2.61-9.31-10.69-15.54-20.53-14.21Z"/>
  <path class="cls-1" d="M584.86,93.41l14.7-27.2,5.06-6.05c2.33-.52,13.2,6.19,12.88,8.62l-31.65,55.27-13.6-6.7-5.76-44.52-17.51,32.55c-2.16,1.93-13.75-4.66-14.22-6.24-.57-1.92.22-3.34.82-5.03,3.43-9.66,15.5-29.72,21.12-39.49,1.15-2,7.68-13.7,8.54-13.88,3.04-.65,12.22,2.63,13.59,5.5l6.02,47.19Z"/>
  <path class="cls-1" d="M493.78,27.29l-12.62,7.48c-3.96-3.43-6.13-7.44-11.2-9.57-30.52-12.79-37.91,43.95-4.97,39.1,6.28-.92,5.19-4.65,7.05-9.53l-12.49-3.36,2.05-12.95,28.39,5.81c.85.65.92,1.14.86,2.15-.28,4.48-4.06,19.29-5.61,23.97-1.76,5.3-6.17,7-11.43,8.48-7.9,2.23-14.72,1.92-22.59-.24-45.77-12.58-26.9-87.21,23.81-68.84,4.16,1.51,21.99,12.35,18.76,17.49Z"/>
  <path class="cls-1" d="M134.7,135.5c.31.5,1.71.24,1.59,1.95-.27,3.88-10.06,11.06-13.71,9.94-3.3-1.01-13.45-19.75-16.47-19.32l-15.62,13.4-.05,2.03c1.96,3.79,14.74,17.19,14.94,20.03.22,3.17-9.57,9.48-12.77,10.94l-40.85-51.56c.26-2.23,11.17-11.17,13.33-10.8l14.3,19.02,18.46-14.9-15.18-21.38c.3-1.3,11.75-9.28,13.69-9.18s6.59,6.77,8.18,8.78c9.71,12.24,21.87,28.01,30.17,41.05Z"/>
  <path class="cls-1" d="M650.31,172.57c-2.81-3.01-11.72-8.03-13.15-11.46s2.7-8.76,1.44-11.88c-1.64-4.06-12.55-10.42-15.06-15.1l-14.62,7.93c-2.84-2.74-9.47-6.37-9.42-10.65l56.86-37.78c1.99.06,13.46,8.81,13.17,11.98l-19.23,66.96ZM645.51,135.4l5.68-20.83-16.33,10.98,10.66,9.85Z"/>
  <path class="cls-1" d="M144.86,86.23c5.53.11,16.27-10.82,20.62-9.23,1.73.63,6.15,8.84,4.88,11.05-1.42,2.46-16.7,9.56-16.86,10.96l5.62,9.27,23.96-11.82c2.65.15,7.63,10.49,5.88,13.06-10.22,4.31-19.74,11.8-29.72,16.36-2.36,1.08-5.5,3.25-8.04,2.45-2.07-.66-20.34-32.09-22.95-36.71-2.17-3.84-8.69-13.95-9.64-17.22-.37-1.27-.45-1.74.16-2.99,1.09-2.2,24.52-15.39,28.44-17.29,1.88-.91,7.23-3.99,8.77-3.12,1.64,2.05,6.44,9.48,5.19,11.74l-21.96,12.8,5.65,10.69Z"/>
  <path class="cls-1" d="M39.79,139.18c.73.67,6.09,7.79,6.07,8.38-.97,4.44-11.72,10.21-10.04,14.17,4.29,5.56,34.48,28.83,35.39,32.88.5,2.19-10.31,16.17-14.18,10.29l-33.69-31.43-1.33-.14c-.66,2.21-10.44,12.57-11.95,12.69-2.58.2-8.86-6.48-10.05-9.11,8.83-10.4,17.95-21.4,27.83-30.95,2.85-2.76,8.42-10.04,11.95-6.77Z"/>
  <path class="cls-1" d="M698.23,197.42c1.1,1.41,1.51,3.02.7,4.69-.22.45-6.34,7.09-6.77,7.34-1.19.7-2.01.55-3.26.19-2.17-.63-18.33-16.13-21.16-18.99-2.6-2.63-6-5.73-7.55-9.09.15-1.28,8.09-9.68,9.71-11.38,8.85-9.27,22.7-25.04,31.94-32.62.95-.78,3.12-2.25,4.24-2.22,2.52,2.04,11.86,8.38,10.96,11.62-1.6,5.81-29.96,28.49-34.94,35.27-.5,2.32,14.25,12.76,16.13,15.19Z"/>
  <path class="cls-1" d="M386.78,68.77c-2.17-2.7.01-7.37.13-10.21.75-18.32,2.92-36.43,3.94-54.72.29-5.79,16.04-4.05,17.33-1.17.58,1.31-1.08,24.78-1.38,28.52-.68,8.48-1.67,28.37-3.63,35.42-.58,2.07-.85,3.48-3.17,3.85s-11.94-.11-13.22-1.69Z"/>
  <path class="cls-1" d="M516.78,93.19l-15.32-5.45-.46-2.5,21.5-59.88c2.44-2.09,16.19,2.25,15.35,6.98l-21.08,60.85Z"/>
  <path class="cls-1" d="M327.17,33.71c-1.25,0-2.19-.13-2.64-.43l-.2-.13-1.56-16.41.38-.12c4.38-1.43,14.66-2.47,19.58.54,1.6.98,2.54,2.31,2.79,3.95.36,2.31-.02,6.68-1.66,8.55h0c-1.65,1.88-11.64,4.06-16.7,4.06ZM325.28,32.54c2.56,1.04,16.13-1.6,17.84-3.55h0c1.37-1.56,1.76-5.62,1.42-7.74-.21-1.34-.99-2.43-2.33-3.25-4.45-2.73-14.05-1.84-18.37-.56l1.43,15.1Z"/>
  <path class="cls-1" d="M253.99,70.46c-1.34,0-2.73-.11-4.16-.33-9.1-1.42-14.44-12.33-14.34-22.06.08-7.68,3.76-16.37,13.87-17.74h0c9.64-1.3,18.32,4.69,21.08,14.57,2.24,8,1.07,15.35-3.21,20.17-3.15,3.54-7.76,5.4-13.25,5.4ZM249.49,31.31c-8.05,1.09-12.91,7.36-13,16.76-.12,11.85,6.77,20.01,13.5,21.06,6.96,1.09,12.82-.6,16.5-4.75,4.05-4.55,5.14-11.56,2.99-19.23-2.67-9.54-10.7-15.11-19.99-13.85h0Z"/>
  <path class="cls-1" d="M645.78,136.32l-11.73-10.84,17.97-12.08-6.24,22.92ZM635.66,125.61l9.59,8.86,5.11-18.74-14.7,9.88Z"/>
</svg>